<svg xmlns="http://www.w3.org/2000/svg" width="32.723" height="28.495" viewBox="0 0 32.723 28.495"><g transform="translate(0.329 -1.752)"><path d="M16.032,29.247a.36.36,0,0,1-.255-.1L3.008,16.373A7.979,7.979,0,0,1,8.647,2.752h0a7.928,7.928,0,0,1,5.643,2.337l1.74,1.74,1.74-1.74a7.927,7.927,0,0,1,5.642-2.337h.008a7.979,7.979,0,0,1,5.635,13.621L16.287,29.142A.362.362,0,0,1,16.032,29.247Zm-14.64-18.5S25.356,3.475,23.421,3.473a15.461,15.461,0,0,0-7.135,4.121.36.36,0,0,1-.51,0C12.412,4.228,1.392,8.8,1.392,10.744Z" stroke="#000" stroke-width="2"/></g></svg>