<svg xmlns="http://www.w3.org/2000/svg" width="32.723" height="28.495" viewBox="0 0 32.723 28.495"><g transform="translate(0.329 -1.752)"><path d="M16.032,29.247a.36.36,0,0,1-.255-.1L3.008,16.373A7.979,7.979,0,0,1,8.647,2.752h0a7.928,7.928,0,0,1,5.643,2.337l1.74,1.74,1.74-1.74a7.927,7.927,0,0,1,5.642-2.337h.008a7.979,7.979,0,0,1,5.635,13.621L16.287,29.142A.362.362,0,0,1,16.032,29.247ZM8.649,3.473h0a7.258,7.258,0,0,0-5.129,12.39h0L16.032,28.377,28.546,15.863a7.258,7.258,0,0,0-5.125-12.39h-.008A7.207,7.207,0,0,0,18.281,5.6l-2,1.995a.36.36,0,0,1-.51,0L13.781,5.6A7.206,7.206,0,0,0,8.649,3.473Z" stroke="#000" stroke-width="2"/></g></svg>